<svg width="132" height="28" viewBox="0 0 132 28" fill="none" xmlns="http://www.w3.org/2000/svg">
<g clip-path="url(#clip0_467_797)">
<path d="M20.2267 4.27999H11.3201V7.61333V9.64666V11.36V12.8533V16.22H16.1801V11.3667H12.5067V7.61999H17.9601C18.5067 7.61999 19.0001 7.83999 19.3534 8.19999C19.7134 8.55333 19.9334 9.05333 19.9334 9.59333V18.0933V19.9667H18.0601H9.54006C8.99339 19.9667 8.50006 19.7467 8.14672 19.3867C7.78672 19.0267 7.56672 18.5333 7.56672 17.9933V9.65333V9.49333V7.61999V2.66666V0.533325H20.2267C22.1001 0.533325 23.7934 1.29333 25.0267 2.52666C26.2534 3.75333 27.0201 5.45332 27.0201 7.31999V21.3933V24.0467V25.22C27.0201 26.2267 26.2001 27.0467 25.1934 27.0467H24.8801H23.9201H7.26672C5.39339 27.0467 3.70006 26.2867 2.46672 25.0533C1.23339 23.8267 0.473389 22.1267 0.473389 20.26V7.61333H2.43339H4.22006H6.37339V11.36H4.22006V20.26C4.22006 21.0933 4.56006 21.8533 5.11339 22.4067C5.66672 22.96 6.42672 23.3 7.26006 23.3H23.2601V7.31999C23.2601 6.48666 22.9201 5.72666 22.3667 5.17333C21.8201 4.62666 21.0667 4.27999 20.2267 4.27999Z" fill="#00B289"/>
<path d="M120.04 9.59333C118.32 8.4 116.18 7.97333 114.027 8.43333C111.08 9.06667 108.733 11.4867 108.187 14.4667C107.767 16.74 108.367 19.0533 109.827 20.8067C111.287 22.56 113.433 23.5667 115.707 23.5667C117.22 23.5667 118.687 23.12 119.92 22.3C120.113 22.86 120.64 23.2667 121.267 23.2667H123.427V8.54667H121.727C120.987 8.54 120.347 8.97333 120.04 9.59333ZM112.187 17.9533C111.78 17.3067 111.593 16.6133 111.62 15.8333C111.653 14.7333 112.153 13.66 112.987 12.9C113.773 12.1867 114.693 11.84 115.793 11.84C116.553 11.84 117.227 12.02 117.86 12.3867C119.2 13.1733 119.853 14.3533 119.853 15.98C119.853 17.0533 119.46 17.9667 118.653 18.78C117.767 19.6667 116.74 20.06 115.5 19.9667C114.98 19.9267 114.46 19.7867 113.987 19.5533C113.213 19.18 112.62 18.6533 112.187 17.9533Z" fill="#00B289"/>
<path d="M50.2534 9.24001C49.0468 8.58668 47.7401 8.26001 46.3601 8.26001C45.1934 8.26001 44.1068 8.51334 43.1134 9.02001C42.8868 9.13334 42.6734 9.26001 42.4668 9.39334V5.47334C42.4668 4.68668 41.8268 4.05334 41.0468 4.05334H38.8401V23.2667H40.9801C41.5934 23.2667 42.1134 22.88 42.3134 22.3333C42.6068 22.5267 42.9201 22.7 43.2601 22.8533C44.3001 23.3333 45.4068 23.5733 46.5401 23.5733C48.8268 23.5733 50.8334 22.62 52.5001 20.7467C53.6734 19.4333 54.2668 17.7867 54.2668 15.8467C54.2668 14.4533 53.9001 13.1533 53.1734 11.98C52.4468 10.8133 51.4668 9.89334 50.2534 9.24001ZM50.1401 17.8267C49.7601 18.52 49.2534 19.04 48.5934 19.4333C47.9668 19.8 47.3001 19.98 46.5668 19.98C45.8001 19.98 45.1001 19.8067 44.4534 19.4667C43.0534 18.6933 42.4001 17.5933 42.4001 16C42.4001 14.7933 42.7734 13.82 43.5468 13.0133C44.3068 12.22 45.2534 11.8333 46.4468 11.8333C47.6401 11.8333 48.6134 12.2133 49.4334 12.9867C50.2401 13.7467 50.6268 14.6933 50.6334 15.8733C50.6334 16.5667 50.4601 17.24 50.1401 17.8267Z" fill="#00B289"/>
<path d="M65.7268 8.26001C64.3401 8.26001 63.0401 8.61334 61.8601 9.30668C60.6801 10 59.7401 10.9467 59.0668 12.1267C58.3935 13.3067 58.0535 14.6067 58.0535 15.9867C58.0535 17.3467 58.4135 18.6267 59.1135 19.7933C59.9135 21.12 61.0335 22.14 62.4401 22.8267C63.2401 23.22 64.0935 23.46 64.9801 23.54C65.2335 23.56 65.4801 23.5733 65.7268 23.5733C67.1001 23.5733 68.3935 23.22 69.5601 22.5133C70.8801 21.72 71.8935 20.5933 72.5868 19.1733C73.0001 18.32 73.2468 17.4067 73.3135 16.4533C73.4801 14.1533 72.7335 12.16 71.0801 10.5133C69.5735 9.01334 67.7735 8.26001 65.7268 8.26001ZM69.7001 15.82C69.7001 16.5733 69.5268 17.26 69.1801 17.9133C68.4201 19.3267 67.3201 19.98 65.7268 19.98C64.7135 19.98 63.7535 19.62 63.0268 18.96C62.0935 18.1133 61.6535 17.1 61.6801 15.8533C61.6935 15.3067 61.8135 14.7533 62.0335 14.2667C62.4001 13.4333 62.9401 12.82 63.6868 12.3867C64.3201 12.02 64.9868 11.84 65.7268 11.84C66.7801 11.84 67.6935 12.22 68.5135 12.9933C69.3135 13.7533 69.7001 14.68 69.7001 15.82Z" fill="#00B289"/>
<path d="M84.1867 8.26001C82.9734 8.26001 81.9 8.58668 80.9667 9.23334C80.72 8.82001 80.2667 8.54001 79.7467 8.54001H77.6067V23.26H81.24V15.56C81.24 14.92 81.2734 14.3467 81.34 13.8733C81.44 13.3133 81.7534 12.8533 82.3267 12.4467C82.8867 12.0333 83.4667 11.84 84.1134 11.84C85.24 11.84 86.0467 12.2333 86.6533 13.0733C87.0333 13.6067 87.2267 14.44 87.2267 15.5533V21.8333C87.2267 22.62 87.8667 23.2533 88.6467 23.2533H90.8534V15.5533C90.8534 13.5 90.3867 11.88 89.4667 10.7333C88.1334 9.09334 86.3534 8.26001 84.1867 8.26001Z" fill="#00B289"/>
<path d="M128.18 9.96004V23.26H130.387C131.174 23.26 131.807 22.62 131.807 21.84V8.54004H129.6C128.82 8.54004 128.18 9.17337 128.18 9.96004Z" fill="#00B289"/>
<path d="M130.427 4.16666H128.64C128.387 4.16666 128.18 3.95999 128.18 3.70666V1.91999C128.18 1.15333 128.8 0.533325 129.567 0.533325H131.814V2.77999C131.807 3.54666 131.194 4.16666 130.427 4.16666Z" fill="#00B289"/>
<path d="M103.58 15.6399C102.667 15.0799 101.633 14.6266 100.48 14.2866C100.38 14.2533 100.26 14.2199 100.133 14.1799C100.007 14.1466 99.8734 14.1133 99.7334 14.0799C99.44 13.9733 99.1667 13.8333 98.9067 13.6533C98.6467 13.4733 98.5267 13.2199 98.5467 12.8933V12.8666C98.5467 12.4733 98.6734 12.1733 98.9334 11.9733C99.1934 11.7733 99.5067 11.6733 99.8867 11.6733C100.213 11.6733 100.5 11.7599 100.753 11.9333C100.82 11.9799 100.873 12.0266 100.927 12.0866C101.127 12.3199 101.447 12.4133 101.727 12.2866L104.26 11.1333C104.027 10.5666 103.66 10.0533 103.147 9.59995C102.2 8.74661 101.133 8.31995 99.9467 8.31995C98.6867 8.31995 97.5734 8.72661 96.5934 9.53328C95.6134 10.3399 95.12 11.4066 95.12 12.7333C95.12 13.3333 95.2334 13.8866 95.4667 14.3866C95.7 14.8866 96.0467 15.3333 96.5134 15.7266C96.6667 15.8666 96.82 15.9799 96.9667 16.0733C97.1134 16.1666 97.2534 16.2466 97.3934 16.3199C97.5667 16.4066 97.74 16.4866 97.9067 16.5533C98.08 16.6199 98.26 16.6933 98.4467 16.7599L98.7534 16.8666C98.86 16.8999 98.9667 16.9333 99.0867 16.9666C99.2267 17.0199 99.3667 17.0666 99.5134 17.1066C99.66 17.1466 99.8134 17.2066 99.9667 17.2733C100.36 17.4133 100.72 17.5933 101.04 17.8266C101.36 18.0599 101.52 18.3933 101.52 18.8199C101.52 19.2666 101.353 19.6066 101.027 19.8399C100.7 20.0733 100.327 20.1866 99.9134 20.1866C99.4134 20.1866 99.0134 20.0333 98.7 19.7199C98.6667 19.6866 98.6267 19.6466 98.6 19.6066C98.2467 19.1999 97.52 18.9599 96.9934 19.0733L94.7134 19.5733C94.92 20.5866 95.3934 21.4466 96.1334 22.1399C97.1067 23.0533 98.3267 23.5066 99.7867 23.5066C99.9267 23.5066 100.06 23.4999 100.2 23.4799L100.613 23.4266C101.147 23.3199 101.667 23.1533 102.173 22.9133C102.68 22.6733 103.127 22.3799 103.5 22.0333C103.98 21.5666 104.34 21.0466 104.587 20.4733C104.827 19.8999 104.947 19.2733 104.947 18.5999C104.953 17.1866 104.493 16.1933 103.58 15.6399Z" fill="#00B289"/>
</g>
<defs>
<clipPath id="clip0_467_797">
<rect width="132" height="27.3333" fill="white"/>
</clipPath>
</defs>
</svg>
